<svg width="960" height="1080" viewBox="0 0 960 1080" fill="none" xmlns="http://www.w3.org/2000/svg">
  <defs>
    <linearGradient id="bg" x1="120" y1="40" x2="820" y2="1040" gradientUnits="userSpaceOnUse">
      <stop stop-color="#2A0D08"/>
      <stop offset="0.45" stop-color="#140C0E"/>
      <stop offset="1" stop-color="#0A0A0A"/>
    </linearGradient>
    <radialGradient id="glow1" cx="0" cy="0" r="1" gradientUnits="userSpaceOnUse" gradientTransform="translate(240 240) rotate(45) scale(420 360)">
      <stop stop-color="#FF5722" stop-opacity="0.55"/>
      <stop offset="1" stop-color="#FF5722" stop-opacity="0"/>
    </radialGradient>
    <radialGradient id="glow2" cx="0" cy="0" r="1" gradientUnits="userSpaceOnUse" gradientTransform="translate(740 170) rotate(20) scale(360 270)">
      <stop stop-color="#FFD700" stop-opacity="0.4"/>
      <stop offset="1" stop-color="#FFD700" stop-opacity="0"/>
    </radialGradient>
    <linearGradient id="dish" x1="380" y1="430" x2="600" y2="750" gradientUnits="userSpaceOnUse">
      <stop stop-color="#FF6B3D"/>
      <stop offset="1" stop-color="#D94116"/>
    </linearGradient>
    <linearGradient id="plate" x1="300" y1="620" x2="660" y2="860" gradientUnits="userSpaceOnUse">
      <stop stop-color="#F7F7F7"/>
      <stop offset="1" stop-color="#C5C5C5"/>
    </linearGradient>
  </defs>

  <rect width="960" height="1080" fill="url(#bg)"/>
  <rect width="960" height="1080" fill="url(#glow1)"/>
  <rect width="960" height="1080" fill="url(#glow2)"/>

  <g opacity="0.2" stroke="#3B2B2B" stroke-width="1">
    <path d="M0 80H960"/><path d="M0 160H960"/><path d="M0 240H960"/><path d="M0 320H960"/>
    <path d="M0 400H960"/><path d="M0 480H960"/><path d="M0 560H960"/><path d="M0 640H960"/>
    <path d="M0 720H960"/><path d="M0 800H960"/><path d="M0 880H960"/><path d="M0 960H960"/>
    <path d="M120 0V1080"/><path d="M240 0V1080"/><path d="M360 0V1080"/><path d="M480 0V1080"/>
    <path d="M600 0V1080"/><path d="M720 0V1080"/><path d="M840 0V1080"/>
  </g>

  <ellipse cx="480" cy="760" rx="250" ry="110" fill="url(#plate)" opacity="0.95"/>
  <ellipse cx="480" cy="742" rx="190" ry="76" fill="#111216"/>

  <g>
    <ellipse cx="430" cy="700" rx="95" ry="75" fill="url(#dish)"/>
    <ellipse cx="540" cy="700" rx="105" ry="82" fill="url(#dish)"/>
    <ellipse cx="490" cy="650" rx="90" ry="72" fill="url(#dish)"/>
    <ellipse cx="420" cy="655" rx="35" ry="24" fill="#FFD700" opacity="0.85"/>
    <ellipse cx="560" cy="648" rx="28" ry="20" fill="#10FF00" opacity="0.85"/>
    <ellipse cx="500" cy="715" rx="20" ry="15" fill="#FFD700" opacity="0.85"/>
  </g>

  <path d="M384 560C384 540 398 524 416 524C434 524 448 540 448 560" stroke="#F3E9D8" stroke-width="10" stroke-linecap="round"/>
  <path d="M468 540C468 520 482 504 500 504C518 504 532 520 532 540" stroke="#F3E9D8" stroke-width="10" stroke-linecap="round"/>
  <path d="M546 570C546 550 560 534 578 534C596 534 610 550 610 570" stroke="#F3E9D8" stroke-width="10" stroke-linecap="round"/>

  <circle cx="744" cy="848" r="7" fill="#10FF00"/>
  <circle cx="770" cy="820" r="5" fill="#FFD700"/>
  <circle cx="790" cy="860" r="4" fill="#FF5722"/>

  <text x="130" y="188" fill="#FFD700" font-family="sans-serif" font-size="30" letter-spacing="5">TRUSTED REVIEWS</text>
  <text x="126" y="242" fill="#FFFFFF" font-family="sans-serif" font-size="70" font-weight="800">DISH SCORE</text>
  <text x="130" y="290" fill="#C4C4C4" font-family="sans-serif" font-size="24">Rate dishes. Discover places. Share real experiences.</text>
</svg>
